<svg width="144" height="116" viewBox="0 0 144 116" fill="none" xmlns="http://www.w3.org/2000/svg"><path d="M8.474 115.928h125.924c-1.893-16.947-2.077-35.382 0-55.783H7.756c1.697 18.594 2.416 37.188.718 55.783z" fill="#2E9109"/><path d="M71.432 108.187c8.342 0 15.105-9.021 15.105-20.15 0-11.129-6.763-20.15-15.105-20.15-8.343 0-15.106 9.021-15.106 20.15 0 11.129 6.763 20.15 15.106 20.15z" fill="#6CAC55"/><path d="M25.406 110.709c0-4.562-4.02-8.273-8.961-8.273h-2.357l.301-2.158a88.479 88.479 0 000-24.482l-.301-2.159h2.357c4.94 0 8.96-3.71 8.96-8.273v-1.913h92.057v1.913c0 4.562 4.02 8.273 8.961 8.273h2.268l-.204 2.086a127.14 127.14 0 000 24.628l.204 2.085h-2.268c-4.941 0-8.961 3.712-8.961 8.273v1.983l-2.146-.071a1340.379 1340.379 0 00-87.764 0l-2.145.071v-1.983h-.001zm98.78-33.421c-5.493-.876-9.827-4.918-10.706-10.011H29.387c-.876 5.07-5.175 9.1-10.634 9.999a91.939 91.939 0 010 21.52c5.436.896 9.723 4.898 10.623 9.937 27.92-.876 56.195-.876 84.116 0 .904-5.063 5.225-9.077 10.695-9.948-.59-7.142-.59-14.355 0-21.498h-.001z" fill="#6CAC55"/><path d="M71.461 105.815c6.602 0 11.953-8.066 11.953-18.017 0-9.95-5.351-18.017-11.953-18.017-6.602 0-11.953 8.067-11.953 18.017s5.351 18.017 11.953 18.017z" fill="#8CC278"/><path d="M105.571 95.569c2.8 0 5.07-3.423 5.07-7.644 0-4.222-2.27-7.644-5.07-7.644-2.801 0-5.071 3.422-5.071 7.644 0 4.221 2.27 7.644 5.071 7.644zm-73.343-7.644c0 4.221 2.271 7.644 5.072 7.644 2.8 0 5.07-3.423 5.07-7.644S40.1 80.28 37.3 80.28c-2.8 0-5.072 3.423-5.072 7.644z" fill="#6CAC55"/><path d="M125.952 74.87c9.829-3.466 14.988-14.243 11.523-24.072-3.466-9.83-14.243-14.989-24.072-11.523-9.829 3.465-14.988 14.242-11.523 24.071 3.465 9.83 14.242 14.989 24.072 11.523z" fill="#FEBB50"/><path d="M124.785 71.56c8.001-2.822 12.201-11.595 9.38-19.596-2.821-8.001-11.594-12.2-19.595-9.38-8.002 2.82-12.201 11.594-9.38 19.595 2.82 8.001 11.593 12.201 19.595 9.38z" fill="#FFC76C"/><path d="M114.718 43.004c7.769-2.74 16.288 1.339 19.027 9.108 2.739 7.77-1.338 16.289-9.108 19.028-7.77 2.739-16.288-1.339-19.028-9.109-2.739-7.77 1.339-16.288 9.109-19.027zm-.148-.42a15.263 15.263 0 00-8.749 7.855 15.26 15.26 0 00-.631 11.74 15.259 15.259 0 007.854 8.748 15.263 15.263 0 0011.741.632 15.261 15.261 0 008.748-7.855 15.26 15.26 0 00.632-11.74 15.26 15.26 0 00-7.855-8.748 15.26 15.26 0 00-11.74-.632z" fill="#F9D6A0" stroke="#F9D6A0"/><path d="M122.035 67.504l-.817-2.304a11.875 11.875 0 01-3.08.513 1.485 1.485 0 01-1.516-1.353l-.007-.094a1.482 1.482 0 011.45-1.62 8.617 8.617 0 002.784-.48c1.378-.492 2.132-1.361 1.789-2.33-.327-.922-1.307-1.228-3.313-1.197-2.896.047-5.092-.536-5.927-2.889-.756-2.134.15-4.34 2.558-5.77l-.817-2.305 2.371-.843.756 2.134a10.94 10.94 0 012.319-.467 1.483 1.483 0 011.591 1.35 1.485 1.485 0 01-1.393 1.62 7.84 7.84 0 00-2.232.453c-1.572.56-1.84 1.419-1.599 2.098.284.8 1.311 1.007 3.641 1.052 3.239-.007 4.873.915 5.646 3.097.766 2.158-.105 4.544-2.714 6.018l.876 2.473-2.371.843.005.001z" fill="#fff"/><path d="M12.352 51.432c6.683 3.994 15.338 1.814 19.332-4.869 3.994-6.682 1.814-15.338-4.869-19.331-6.683-3.994-15.338-1.815-19.332 4.868-3.994 6.683-1.814 15.338 4.869 19.332z" fill="#FEBB50"/><path d="M13.696 49.18c5.44 3.252 12.485 1.477 15.736-3.963 3.252-5.44 1.477-12.485-3.963-15.736-5.44-3.252-12.485-1.477-15.737 3.963-3.25 5.44-1.476 12.485 3.964 15.736z" fill="#FFC76C"/><path d="M25.298 29.768c5.283 3.157 7.006 9.998 3.849 15.28-3.157 5.283-9.998 7.006-15.28 3.85-5.283-3.158-7.006-10-3.85-15.282 3.158-5.282 10-7.005 15.281-3.848zm.171-.286a11.4 11.4 0 00-8.69-1.277 11.4 11.4 0 00-7.047 5.24 11.4 11.4 0 00-1.277 8.69 11.4 11.4 0 005.24 7.047 11.4 11.4 0 008.69 1.278 11.4 11.4 0 007.047-5.24 11.4 11.4 0 001.278-8.69 11.4 11.4 0 00-5.24-7.048z" fill="#F9D6A0" stroke="#F9D6A0" stroke-width=".7"/><path d="M14.713 45.665l.934-1.57a8.86 8.86 0 01-1.765-1.524 1.11 1.11 0 01.054-1.517l.05-.049a1.106 1.106 0 011.624.06c.425.5.96.986 1.605 1.37.94.558 1.8.576 2.192-.084.374-.628.082-1.337-.893-2.475-1.41-1.642-2.123-3.182-1.17-4.784.866-1.453 2.566-1.986 4.537-1.285l.934-1.57 1.616.96-.865 1.454a8.174 8.174 0 011.375 1.11c.424.433.415 1.13-.016 1.558a1.11 1.11 0 01-1.595-.027 5.858 5.858 0 00-1.326-1.067c-1.073-.635-1.694-.38-1.97.083-.323.545.048 1.234 1.135 2.594 1.55 1.858 1.8 3.237.915 4.723-.875 1.47-2.662 2.108-4.754 1.313l-1.003 1.684-1.616-.96.002.003z" fill="#fff"/><path d="M75.06 20.224A9.254 9.254 0 0063.466 5.798a9.254 9.254 0 1011.596 14.426z" fill="#FEBB50"/><path d="M73.983 18.885a7.533 7.533 0 10-9.44-11.743 7.533 7.533 0 009.44 11.743z" fill="#FFC76C"/><path d="M64.682 7.31a7.315 7.315 0 119.166 11.403A7.315 7.315 0 0164.682 7.31zm-.136-.17a7.484 7.484 0 00-2.77 5.057 7.484 7.484 0 001.617 5.534 7.484 7.484 0 005.058 2.77c2 .217 3.966-.357 5.534-1.618a7.484 7.484 0 002.77-5.057c.217-2-.357-3.966-1.618-5.534a7.484 7.484 0 00-5.057-2.77c-2-.217-3.966.357-5.534 1.618z" fill="#F9D6A0" stroke="#F9D6A0" stroke-width=".5"/><path d="M72.05 17.457l-.753-.933c-.435.32-.912.575-1.341.738a.728.728 0 01-.922-.38l-.018-.042a.726.726 0 01.407-.985 4.227 4.227 0 001.21-.675c.558-.452.765-.976.449-1.369-.302-.373-.805-.355-1.728-.015-1.332.493-2.443.58-3.212-.372-.697-.864-.637-2.033.245-3.086l-.753-.933.96-.776.697.865c.369-.273.7-.461.997-.594a.727.727 0 01.955.366.729.729 0 01-.38.976 3.843 3.843 0 00-.96.573c-.636.515-.62.956-.398 1.23.261.324.77.253 1.856-.105 1.497-.53 2.403-.37 3.115.514.706.874.69 2.12-.276 3.226l.807 1.002-.96.775h.003z" fill="#fff"/></svg>